<svg class="svg-icon" style="width: 1em; height: 1em;vertical-align: middle;fill: currentColor;overflow: hidden;" viewBox="0 0 1024 1024" version="1.1"
    xmlns="http://www.w3.org/2000/svg">
    <path fill="white" d="M852.00896 0l-679.99744 0c-94.59712 0-171.99104 77.39392-171.99104 171.99104l0 679.99744c0 94.59712 77.39392 171.99104 171.99104 171.99104l679.99744 0c94.59712 0 171.99104-77.39392 171.99104-171.99104l0-679.99744c0-94.59712-77.39392-171.99104-171.99104-171.99104zM384 832l-128 0 0-448 128 0 0 448zM320 320c-35.34848 0-64-28.65152-64-64s28.65152-64 64-64 64 28.65152 64 64-28.65152 64-64 64zM832 832l-128 0 0-256c0-35.34848-28.65152-64-64-64s-64 28.65152-64 64l0 256-128 0 0-448 128 0 0 79.4624c26.39872-36.27008 66.74432-79.4624 112.00512-79.4624 79.52384 0 143.99488 71.63904 143.99488 160.01024l0 288.01024z" />
</svg>